<?xml version="1.0" encoding="UTF-8" standalone="no"?>
<!-- Created with Inkscape (http://www.inkscape.org/) -->

<svg
   xmlns:dc="http://purl.org/dc/elements/1.1/"
   xmlns:cc="http://creativecommons.org/ns#"
   xmlns:rdf="http://www.w3.org/1999/02/22-rdf-syntax-ns#"
   xmlns:svg="http://www.w3.org/2000/svg"
   xmlns="http://www.w3.org/2000/svg"
   xmlns:sodipodi="http://sodipodi.sourceforge.net/DTD/sodipodi-0.dtd"
   xmlns:inkscape="http://www.inkscape.org/namespaces/inkscape"
   width="2622.2488"
   height="1625"
   id="svg4153"
   version="1.1"
   inkscape:version="0.48.2 r9819"
   sodipodi:docname="unca.svg">
  <defs
     id="defs4155" />
  <sodipodi:namedview
     id="base"
     pagecolor="#ffffff"
     bordercolor="#666666"
     borderopacity="1.0"
     inkscape:pageopacity="1"
     inkscape:pageshadow="2"
     inkscape:zoom="0.37114198"
     inkscape:cx="1240.3649"
     inkscape:cy="736.13928"
     inkscape:document-units="px"
     inkscape:current-layer="layer1"
     showgrid="false"
     inkscape:window-width="844"
     inkscape:window-height="873"
     inkscape:window-x="297"
     inkscape:window-y="56"
     inkscape:window-maximized="0"
     fit-margin-top="0"
     fit-margin-left="0"
     fit-margin-right="0"
     fit-margin-bottom="0" />
  <metadata
     id="metadata4158">
    <rdf:RDF>
      <cc:Work
         rdf:about="">
        <dc:format>image/svg+xml</dc:format>
        <dc:type
           rdf:resource="http://purl.org/dc/dcmitype/StillImage" />
        <dc:title />
      </cc:Work>
    </rdf:RDF>
  </metadata>
  <g
     inkscape:label="Layer 1"
     inkscape:groupmode="layer"
     id="layer1"
     transform="translate(1010.6592,474.40149)">
    <path
       style="fill:#000000"
       d=""
       id="path4226"
       inkscape:connector-curvature="0" />
    <path
       style="fill:#000000"
       d="m -916.38842,1111.4686 c -51.84896,-18.937 -94.27078,-47.7689 -94.27078,-64.071 0,-16.3025 45.022,-13.9461 100.04877,5.2366 55.02711,19.1827 151.44041,29.9496 214.25194,23.9268 l 114.20319,-10.9499 291.38246,-728.0742 C -93.722564,-154.82991 25.241236,-407.69955 76.693836,-443.55085 170.68114,-509.03865 166.62544,-514.76515 392.88894,2.9218965 540.59274,340.86622 566.14784,379.09998 639.09754,371.28745 c 519.51486,-55.63936 536.08746,-54.70933 731.87796,41.08248 104.3767,51.06667 205.6575,122.52341 225.0681,158.7929 42.4626,79.34194 -8.891,88.10884 -71.8365,12.26352 -196.0792,-236.26074 -839.56546,-180.2748 -1180.79456,102.73326 -50.2714,41.69404 -29.9746,38.11995 76.0853,-13.39821 261.2032,-126.87841 510.3438,-174.94177 698.10096,-134.67517 259.263,55.60199 230.1849,90.83826 -85.8902,104.07946 -158.61906,6.64494 -298.46096,22.15379 -310.76016,34.46324 -45.2633,45.30241 128.9935,377.03617 219.2826,417.44977 78.76806,35.2572 60.27576,40.9077 -163.8729,50.0726 -273.5652,11.1854 -323.3278,-4.0575 -231.7813,-70.9978 54.5352,-39.8775 54.963,-52.9236 5.6076,-171.04746 -29.3866,-70.33268 -64.7929,-127.83793 -78.6807,-127.78959 -13.8877,0.0343 -114.7232,54.03983 -224.0788,119.98117 C 13.064036,1035.6167 -99.489564,1057.04 3.8666358,940.65587 63.868536,873.09066 58.038036,873.98161 -67.951064,951.62907 -373.58261,1139.9906 -680.15819,1197.7472 -916.38842,1111.4686 z M 106.49534,678.91922 383.78264,492.35737 243.75354,170.50878 C 166.73784,-6.5076535 95.949936,-151.19754 86.447336,-151.02443 c -18.9996,0.34624 -445.780896,1062.70537 -445.780896,1109.65427 0,31.14969 35.30826,9.94855 465.8289,-279.71062 z"
       id="path4725"
       inkscape:connector-curvature="0" />
    <path
       style="fill:#000000"
       d=""
       id="path4701"
       inkscape:connector-curvature="0" />
  </g>
</svg>
